SolidWorks IGES file using analytic representation for surfaces         S      1
1H,,1H;,26Hreed grande masse 1.SLDPRT,40HC:\studies\anche\reed grande maG      1
sse 1.IGS,15HSolidWorks 2012,15HSolidWorks 2012,32,308,15,308,15,26HreedG      2
 grande masse 1.SLDPRT,1.,2,2HMM,50,0.125,13H190206.023656,1E-008,      G      3
499990.,7Hbernard,,11,0,13H190206.023656;                               G      4
     314       1       0       0       0                        00000200D      1
     314       0       8       1       0                               0D      2
     110       2       0       0       0                        01010000D      3
     110       0       0       1       0                               0D      4
     110       3       0       0       0                        01010000D      5
     110       0       0       1       0                               0D      6
     120       4       0       0       0                        01010000D      7
     120       0       0       1       0                               0D      8
     126       5       0       0       0                        01010500D      9
     126       0       0       2       0                               0D     10
     110       7       0       0       0                        01010000D     11
     110       0       0       1       0                               0D     12
     126       8       0       0       0                        01010500D     13
     126       0       0       2       0                               0D     14
     100      10       0       0       0                        01010000D     15
     100       0       0       1       0                               0D     16
     126      11       0       0       0                        01010500D     17
     126       0       0       2       0                               0D     18
     110      13       0       0       0                        01010000D     19
     110       0       0       1       0                               0D     20
     126      14       0       0       0                        01010500D     21
     126       0       0       2       0                               0D     22
     124      16       0       0       0                        00000000D     23
     124       0       0       4       0                               0D     24
     100      20       0       0       0              23        01010000D     25
     100       0       0       1       0                               0D     26
     102      21       0       0       0                        01010500D     27
     102       0       0       1       0                               0D     28
     102      22       0       0       0                        01010000D     29
     102       0       0       1       0                               0D     30
     142      23       0       0       0                        00010500D     31
     142       0       0       1       0                               0D     32
     144      24       0       0       0                        00000000D     33
     144       0      -1       1       0                               0D     34
     128      25       0       0       0                        01010000D     35
     128       0       0       2       0                               0D     36
     126      27       0       0       0                        01010500D     37
     126       0       0       2       0                               0D     38
     110      29       0       0       0                        01010000D     39
     110       0       0       1       0                               0D     40
     126      30       0       0       0                        01010500D     41
     126       0       0       2       0                               0D     42
     110      32       0       0       0                        01010000D     43
     110       0       0       1       0                               0D     44
     126      33       0       0       0                        01010500D     45
     126       0       0       2       0                               0D     46
     110      35       0       0       0                        01010000D     47
     110       0       0       1       0                               0D     48
     126      36       0       0       0                        01010500D     49
     126       0       0       2       0                               0D     50
     110      38       0       0       0                        01010000D     51
     110       0       0       1       0                               0D     52
     102      39       0       0       0                        01010500D     53
     102       0       0       1       0                               0D     54
     102      40       0       0       0                        01010000D     55
     102       0       0       1       0                               0D     56
     142      41       0       0       0                        00010500D     57
     142       0       0       1       0                               0D     58
     126      42       0       0       0                        01010500D     59
     126       0       0      21       0                               0D     60
     124      63       0       0       0                        00000000D     61
     124       0       0       4       0                               0D     62
     100      67       0       0       0              61        01010000D     63
     100       0       0       1       0                               0D     64
     126      68       0       0       0                        01010500D     65
     126       0       0      21       0                               0D     66
     124      89       0       0       0                        00000000D     67
     124       0       0       4       0                               0D     68
     100      93       0       0       0              67        01010000D     69
     100       0       0       1       0                               0D     70
     102      94       0       0       0                        01010500D     71
     102       0       0       1       0                               0D     72
     102      95       0       0       0                        01010000D     73
     102       0       0       1       0                               0D     74
     142      96       0       0       0                        00010500D     75
     142       0       0       1       0                               0D     76
     144      97       0       0       0                        00000000D     77
     144       0      -1       1       0                               0D     78
     110      98       0       0       0                        01010000D     79
     110       0       0       1       0                               0D     80
     110      99       0       0       0                        01010000D     81
     110       0       0       1       0                               0D     82
     120     100       0       0       0                        01010000D     83
     120       0       0       1       0                               0D     84
     126     101       0       0       0                        01010500D     85
     126       0       0       2       0                               0D     86
     110     103       0       0       0                        01010000D     87
     110       0       0       1       0                               0D     88
     126     104       0       0       0                        01010500D     89
     126       0       0       3       0                               0D     90
     126     107       0       0       0                        01010000D     91
     126       0       0       4       0                               0D     92
     126     111       0       0       0                        01010500D     93
     126       0       0       2       0                               0D     94
     110     113       0       0       0                        01010000D     95
     110       0       0       2       0                               0D     96
     126     115       0       0       0                        01010500D     97
     126       0       0       2       0                               0D     98
     100     117       0       0       0                        01010000D     99
     100       0       0       2       0                               0D    100
     102     119       0       0       0                        01010500D    101
     102       0       0       1       0                               0D    102
     102     120       0       0       0                        01010000D    103
     102       0       0       1       0                               0D    104
     142     121       0       0       0                        00010500D    105
     142       0       0       1       0                               0D    106
     144     122       0       0       0                        00000000D    107
     144       0      -1       1       0                               0D    108
     128     123       0       0       0                        01010000D    109
     128       0       0       3       0                               0D    110
     126     126       0       0       0                        01010500D    111
     126       0       0       2       0                               0D    112
     110     128       0       0       0                        01010000D    113
     110       0       0       2       0                               0D    114
     126     130       0       0       0                        01010500D    115
     126       0       0       2       0                               0D    116
     110     132       0       0       0                        01010000D    117
     110       0       0       1       0                               0D    118
     126     133       0       0       0                        01010500D    119
     126       0       0       2       0                               0D    120
     110     135       0       0       0                        01010000D    121
     110       0       0       1       0                               0D    122
     126     136       0       0       0                        01010500D    123
     126       0       0       2       0                               0D    124
     110     138       0       0       0                        01010000D    125
     110       0       0       1       0                               0D    126
     126     139       0       0       0                        01010500D    127
     126       0       0       2       0                               0D    128
     110     141       0       0       0                        01010000D    129
     110       0       0       1       0                               0D    130
     126     142       0       0       0                        01010500D    131
     126       0       0       2       0                               0D    132
     110     144       0       0       0                        01010000D    133
     110       0       0       1       0                               0D    134
     126     145       0       0       0                        01010500D    135
     126       0       0       2       0                               0D    136
     110     147       0       0       0                        01010000D    137
     110       0       0       1       0                               0D    138
     126     148       0       0       0                        01010500D    139
     126       0       0       2       0                               0D    140
     110     150       0       0       0                        01010000D    141
     110       0       0       1       0                               0D    142
     102     151       0       0       0                        01010500D    143
     102       0       0       1       0                               0D    144
     102     152       0       0       0                        01010000D    145
     102       0       0       1       0                               0D    146
     142     153       0       0       0                        00010500D    147
     142       0       0       1       0                               0D    148
     144     154       0       0       0                        00000000D    149
     144       0      -1       1       0                               0D    150
     128     155       0       0       0                        01010000D    151
     128       0       0       3       0                               0D    152
     126     158       0       0       0                        01010500D    153
     126       0       0       2       0                               0D    154
     110     160       0       0       0                        01010000D    155
     110       0       0       1       0                               0D    156
     126     161       0       0       0                        01010500D    157
     126       0       0       2       0                               0D    158
     110     163       0       0       0                        01010000D    159
     110       0       0       1       0                               0D    160
     126     164       0       0       0                        01010500D    161
     126       0       0       2       0                               0D    162
     110     166       0       0       0                        01010000D    163
     110       0       0       1       0                               0D    164
     126     167       0       0       0                        01010500D    165
     126       0       0       2       0                               0D    166
     110     169       0       0       0                        01010000D    167
     110       0       0       1       0                               0D    168
     102     170       0       0       0                        01010500D    169
     102       0       0       1       0                               0D    170
     102     171       0       0       0                        01010000D    171
     102       0       0       1       0                               0D    172
     142     172       0       0       0                        00010500D    173
     142       0       0       1       0                               0D    174
     144     173       0       0       0                        00000000D    175
     144       0      -1       1       0                               0D    176
     128     174       0       0       0                        01010000D    177
     128       0       0       3       0                               0D    178
     126     177       0       0       0                        01010500D    179
     126       0       0       2       0                               0D    180
     110     179       0       0       0                        01010000D    181
     110       0       0       1       0                               0D    182
     126     180       0       0       0                        01010500D    183
     126       0       0       2       0                               0D    184
     110     182       0       0       0                        01010000D    185
     110       0       0       1       0                               0D    186
     126     183       0       0       0                        01010500D    187
     126       0       0       2       0                               0D    188
     110     185       0       0       0                        01010000D    189
     110       0       0       1       0                               0D    190
     126     186       0       0       0                        01010500D    191
     126       0       0       2       0                               0D    192
     110     188       0       0       0                        01010000D    193
     110       0       0       1       0                               0D    194
     126     189       0       0       0                        01010500D    195
     126       0       0       2       0                               0D    196
     110     191       0       0       0                        01010000D    197
     110       0       0       1       0                               0D    198
     126     192       0       0       0                        01010500D    199
     126       0       0       2       0                               0D    200
     110     194       0       0       0                        01010000D    201
     110       0       0       1       0                               0D    202
     126     195       0       0       0                        01010500D    203
     126       0       0       2       0                               0D    204
     110     197       0       0       0                        01010000D    205
     110       0       0       2       0                               0D    206
     126     199       0       0       0                        01010500D    207
     126       0       0       2       0                               0D    208
     110     201       0       0       0                        01010000D    209
     110       0       0       1       0                               0D    210
     102     202       0       0       0                        01010500D    211
     102       0       0       1       0                               0D    212
     102     203       0       0       0                        01010000D    213
     102       0       0       1       0                               0D    214
     142     204       0       0       0                        00010500D    215
     142       0       0       1       0                               0D    216
     144     205       0       0       0                        00000000D    217
     144       0      -1       1       0                               0D    218
     110     206       0       0       0                        01010000D    219
     110       0       0       1       0                               0D    220
     110     207       0       0       0                        01010000D    221
     110       0       0       1       0                               0D    222
     120     208       0       0       0                        01010000D    223
     120       0       0       1       0                               0D    224
     126     209       0       0       0                        01010500D    225
     126       0       0       2       0                               0D    226
     110     211       0       0       0                        01010000D    227
     110       0       0       2       0                               0D    228
     126     213       0       0       0                        01010500D    229
     126       0       0       3       0                               0D    230
     126     216       0       0       0                        01010000D    231
     126       0       0       4       0                               0D    232
     126     220       0       0       0                        01010500D    233
     126       0       0       2       0                               0D    234
     110     222       0       0       0                        01010000D    235
     110       0       0       1       0                               0D    236
     126     223       0       0       0                        01010500D    237
     126       0       0       2       0                               0D    238
     100     225       0       0       0                        01010000D    239
     100       0       0       2       0                               0D    240
     102     227       0       0       0                        01010500D    241
     102       0       0       1       0                               0D    242
     102     228       0       0       0                        01010000D    243
     102       0       0       1       0                               0D    244
     142     229       0       0       0                        00010500D    245
     142       0       0       1       0                               0D    246
     144     230       0       0       0                        00000000D    247
     144       0      -1       1       0                               0D    248
     128     231       0       0       0                        01010000D    249
     128       0       0       2       0                               0D    250
     126     233       0       0       0                        01010500D    251
     126       0       0       2       0                               0D    252
     110     235       0       0       0                        01010000D    253
     110       0       0       1       0                               0D    254
     126     236       0       0       0                        01010500D    255
     126       0       0       2       0                               0D    256
     110     238       0       0       0                        01010000D    257
     110       0       0       1       0                               0D    258
     126     239       0       0       0                        01010500D    259
     126       0       0       2       0                               0D    260
     110     241       0       0       0                        01010000D    261
     110       0       0       1       0                               0D    262
     126     242       0       0       0                        01010500D    263
     126       0       0       2       0                               0D    264
     110     244       0       0       0                        01010000D    265
     110       0       0       1       0                               0D    266
     102     245       0       0       0                        01010500D    267
     102       0       0       1       0                               0D    268
     102     246       0       0       0                        01010000D    269
     102       0       0       1       0                               0D    270
     142     247       0       0       0                        00010500D    271
     142       0       0       1       0                               0D    272
     144     248       0       0       0                        00000000D    273
     144       0      -1       1       0                               0D    274
     110     249       0       0       0                        01010000D    275
     110       0       0       1       0                               0D    276
     110     250       0       0       0                        01010000D    277
     110       0       0       1       0                               0D    278
     120     251       0       0       0                        01010000D    279
     120       0       0       1       0                               0D    280
     126     252       0       0       0                        01010500D    281
     126       0       0       2       0                               0D    282
     100     254       0       0       0                        01010000D    283
     100       0       0       1       0                               0D    284
     126     255       0       0       0                        01010500D    285
     126       0       0       2       0                               0D    286
     110     257       0       0       0                        01010000D    287
     110       0       0       1       0                               0D    288
     126     258       0       0       0                        01010500D    289
     126       0       0       2       0                               0D    290
     124     260       0       0       0                        00000000D    291
     124       0       0       5       0                               0D    292
     100     265       0       0       0             291        01010000D    293
     100       0       0       1       0                               0D    294
     126     266       0       0       0                        01010500D    295
     126       0       0       2       0                               0D    296
     110     268       0       0       0                        01010000D    297
     110       0       0       1       0                               0D    298
     102     269       0       0       0                        01010500D    299
     102       0       0       1       0                               0D    300
     102     270       0       0       0                        01010000D    301
     102       0       0       1       0                               0D    302
     142     271       0       0       0                        00010500D    303
     142       0       0       1       0                               0D    304
     144     272       0       0       0                        00000000D    305
     144       0      -1       1       0                               0D    306
     128     273       0       0       0                        01010000D    307
     128       0       0       3       0                               0D    308
     126     276       0       0       0                        01010500D    309
     126       0       0       2       0                               0D    310
     110     278       0       0       0                        01010000D    311
     110       0       0       1       0                               0D    312
     126     279       0       0       0                        01010500D    313
     126       0       0       2       0                               0D    314
     110     281       0       0       0                        01010000D    315
     110       0       0       1       0                               0D    316
     126     282       0       0       0                        01010500D    317
     126       0       0       2       0                               0D    318
     110     284       0       0       0                        01010000D    319
     110       0       0       1       0                               0D    320
     126     285       0       0       0                        01010500D    321
     126       0       0       2       0                               0D    322
     110     287       0       0       0                        01010000D    323
     110       0       0       1       0                               0D    324
     102     288       0       0       0                        01010500D    325
     102       0       0       1       0                               0D    326
     102     289       0       0       0                        01010000D    327
     102       0       0       1       0                               0D    328
     142     290       0       0       0                        00010500D    329
     142       0       0       1       0                               0D    330
     144     291       0       0       0                        00000000D    331
     144       0      -1       1       0                               0D    332
     128     292       0       0       0                        01010000D    333
     128       0       0       2       0                               0D    334
     126     294       0       0       0                        01010500D    335
     126       0       0       2       0                               0D    336
     110     296       0       0       0                        01010000D    337
     110       0       0       1       0                               0D    338
     126     297       0       0       0                        01010500D    339
     126       0       0       2       0                               0D    340
     110     299       0       0       0                        01010000D    341
     110       0       0       1       0                               0D    342
     126     300       0       0       0                        01010500D    343
     126       0       0       2       0                               0D    344
     110     302       0       0       0                        01010000D    345
     110       0       0       1       0                               0D    346
     126     303       0       0       0                        01010500D    347
     126       0       0       2       0                               0D    348
     110     305       0       0       0                        01010000D    349
     110       0       0       1       0                               0D    350
     126     306       0       0       0                        01010500D    351
     126       0       0       2       0                               0D    352
     110     308       0       0       0                        01010000D    353
     110       0       0       1       0                               0D    354
     102     309       0       0       0                        01010500D    355
     102       0       0       1       0                               0D    356
     102     310       0       0       0                        01010000D    357
     102       0       0       1       0                               0D    358
     142     311       0       0       0                        00010500D    359
     142       0       0       1       0                               0D    360
     144     312       0       0       0                        00000000D    361
     144       0      -1       1       0                               0D    362
     128     313       0       0       0                        01010000D    363
     128       0       0       2       0                               0D    364
     126     315       0       0       0                        01010500D    365
     126       0       0       2       0                               0D    366
     110     317       0       0       0                        01010000D    367
     110       0       0       1       0                               0D    368
     126     318       0       0       0                        01010500D    369
     126       0       0       2       0                               0D    370
     110     320       0       0       0                        01010000D    371
     110       0       0       1       0                               0D    372
     126     321       0       0       0                        01010500D    373
     126       0       0       2       0                               0D    374
     110     323       0       0       0                        01010000D    375
     110       0       0       1       0                               0D    376
     126     324       0       0       0                        01010500D    377
     126       0       0       2       0                               0D    378
     110     326       0       0       0                        01010000D    379
     110       0       0       1       0                               0D    380
     126     327       0       0       0                        01010500D    381
     126       0       0       2       0                               0D    382
     110     329       0       0       0                        01010000D    383
     110       0       0       1       0                               0D    384
     126     330       0       0       0                        01010500D    385
     126       0       0       2       0                               0D    386
     110     332       0       0       0                        01010000D    387
     110       0       0       1       0                               0D    388
     126     333       0       0       0                        01010500D    389
     126       0       0       2       0                               0D    390
     110     335       0       0       0                        01010000D    391
     110       0       0       1       0                               0D    392
     126     336       0       0       0                        01010500D    393
     126       0       0       2       0                               0D    394
     110     338       0       0       0                        01010000D    395
     110       0       0       1       0                               0D    396
     102     339       0       0       0                        01010500D    397
     102       0       0       1       0                               0D    398
     102     340       0       0       0                        01010000D    399
     102       0       0       1       0                               0D    400
     142     341       0       0       0                        00010500D    401
     142       0       0       1       0                               0D    402
     144     342       0       0       0                        00000000D    403
     144       0      -1       1       0                               0D    404
     128     343       0       0       0                        01010000D    405
     128       0       0       2       0                               0D    406
     126     345       0       0       0                        01010500D    407
     126       0       0       2       0                               0D    408
     110     347       0       0       0                        01010000D    409
     110       0       0       1       0                               0D    410
     126     348       0       0       0                        01010500D    411
     126       0       0       2       0                               0D    412
     110     350       0       0       0                        01010000D    413
     110       0       0       1       0                               0D    414
     126     351       0       0       0                        01010500D    415
     126       0       0       2       0                               0D    416
     110     353       0       0       0                        01010000D    417
     110       0       0       1       0                               0D    418
     126     354       0       0       0                        01010500D    419
     126       0       0       2       0                               0D    420
     110     356       0       0       0                        01010000D    421
     110       0       0       1       0                               0D    422
     126     357       0       0       0                        01010500D    423
     126       0       0       2       0                               0D    424
     110     359       0       0       0                        01010000D    425
     110       0       0       1       0                               0D    426
     102     360       0       0       0                        01010500D    427
     102       0       0       1       0                               0D    428
     102     361       0       0       0                        01010000D    429
     102       0       0       1       0                               0D    430
     142     362       0       0       0                        00010500D    431
     142       0       0       1       0                               0D    432
     144     363       0       0       0                        00000000D    433
     144       0      -1       1       0                               0D    434
     128     364       0       0       0                        01010000D    435
     128       0       0       3       0                               0D    436
     126     367       0       0       0                        01010500D    437
     126       0       0       2       0                               0D    438
     110     369       0       0       0                        01010000D    439
     110       0       0       1       0                               0D    440
     126     370       0       0       0                        01010500D    441
     126       0       0       2       0                               0D    442
     110     372       0       0       0                        01010000D    443
     110       0       0       1       0                               0D    444
     126     373       0       0       0                        01010500D    445
     126       0       0       2       0                               0D    446
     110     375       0       0       0                        01010000D    447
     110       0       0       1       0                               0D    448
     126     376       0       0       0                        01010500D    449
     126       0       0       2       0                               0D    450
     110     378       0       0       0                        01010000D    451
     110       0       0       1       0                               0D    452
     102     379       0       0       0                        01010500D    453
     102       0       0       1       0                               0D    454
     102     380       0       0       0                        01010000D    455
     102       0       0       1       0                               0D    456
     142     381       0       0       0                        00010500D    457
     142       0       0       1       0                               0D    458
     144     382       0       0       0                        00000000D    459
     144       0      -1       1       0                               0D    460
     128     383       0       0       0                        01010000D    461
     128       0       0       3       0                               0D    462
     126     386       0       0       0                        01010500D    463
     126       0       0       2       0                               0D    464
     110     388       0       0       0                        01010000D    465
     110       0       0       1       0                               0D    466
     126     389       0       0       0                        01010500D    467
     126       0       0       2       0                               0D    468
     110     391       0       0       0                        01010000D    469
     110       0       0       1       0                               0D    470
     126     392       0       0       0                        01010500D    471
     126       0       0       2       0                               0D    472
     110     394       0       0       0                        01010000D    473
     110       0       0       1       0                               0D    474
     126     395       0       0       0                        01010500D    475
     126       0       0       2       0                               0D    476
     110     397       0       0       0                        01010000D    477
     110       0       0       1       0                               0D    478
     102     398       0       0       0                        01010500D    479
     102       0       0       1       0                               0D    480
     102     399       0       0       0                        01010000D    481
     102       0       0       1       0                               0D    482
     142     400       0       0       0                        00010500D    483
     142       0       0       1       0                               0D    484
     144     401       0       0       0                        00000000D    485
     144       0      -1       1       0                               0D    486
     128     402       0       0       0                        01010000D    487
     128       0       0       3       0                               0D    488
     126     405       0       0       0                        01010500D    489
     126       0       0       2       0                               0D    490
     110     407       0       0       0                        01010000D    491
     110       0       0       1       0                               0D    492
     126     408       0       0       0                        01010500D    493
     126       0       0       2       0                               0D    494
     110     410       0       0       0                        01010000D    495
     110       0       0       1       0                               0D    496
     126     411       0       0       0                        01010500D    497
     126       0       0       2       0                               0D    498
     110     413       0       0       0                        01010000D    499
     110       0       0       1       0                               0D    500
     126     414       0       0       0                        01010500D    501
     126       0       0       2       0                               0D    502
     110     416       0       0       0                        01010000D    503
     110       0       0       1       0                               0D    504
     102     417       0       0       0                        01010500D    505
     102       0       0       1       0                               0D    506
     102     418       0       0       0                        01010000D    507
     102       0       0       1       0                               0D    508
     142     419       0       0       0                        00010500D    509
     142       0       0       1       0                               0D    510
     144     420       0       0       0                        00000000D    511
     144       0      -1       1       0                               0D    512
     128     421       0       0       0                        01010000D    513
     128       0       0       2       0                               0D    514
     126     423       0       0       0                        01010500D    515
     126       0       0       2       0                               0D    516
     110     425       0       0       0                        01010000D    517
     110       0       0       1       0                               0D    518
     126     426       0       0       0                        01010500D    519
     126       0       0       2       0                               0D    520
     110     428       0       0       0                        01010000D    521
     110       0       0       1       0                               0D    522
     126     429       0       0       0                        01010500D    523
     126       0       0       2       0                               0D    524
     110     431       0       0       0                        01010000D    525
     110       0       0       1       0                               0D    526
     126     432       0       0       0                        01010500D    527
     126       0       0       2       0                               0D    528
     110     434       0       0       0                        01010000D    529
     110       0       0       1       0                               0D    530
     126     435       0       0       0                        01010500D    531
     126       0       0       2       0                               0D    532
     110     437       0       0       0                        01010000D    533
     110       0       0       1       0                               0D    534
     126     438       0       0       0                        01010500D    535
     126       0       0       6       0                               0D    536
     126     444       0       0       0                        01010000D    537
     126       0       0       4       0                               0D    538
     126     448       0       0       0                        01010500D    539
     126       0       0       2       0                               0D    540
     110     450       0       0       0                        01010000D    541
     110       0       0       1       0                               0D    542
     126     451       0       0       0                        01010500D    543
     126       0       0       2       0                               0D    544
     110     453       0       0       0                        01010000D    545
     110       0       0       1       0                               0D    546
     126     454       0       0       0                        01010500D    547
     126       0       0       2       0                               0D    548
     110     456       0       0       0                        01010000D    549
     110       0       0       1       0                               0D    550
     126     457       0       0       0                        01010500D    551
     126       0       0       6       0                               0D    552
     126     463       0       0       0                        01010000D    553
     126       0       0       4       0                               0D    554
     102     467       0       0       0                        01010500D    555
     102       0       0       1       0                               0D    556
     102     468       0       0       0                        01010000D    557
     102       0       0       1       0                               0D    558
     142     469       0       0       0                        00010500D    559
     142       0       0       1       0                               0D    560
     144     470       0       0       0                        00000000D    561
     144       0      -1       1       0                               0D    562
     128     471       0       0       0                        01010000D    563
     128       0       0       2       0                               0D    564
     126     473       0       0       0                        01010500D    565
     126       0       0       2       0                               0D    566
     110     475       0       0       0                        01010000D    567
     110       0       0       1       0                               0D    568
     126     476       0       0       0                        01010500D    569
     126       0       0       2       0                               0D    570
     110     478       0       0       0                        01010000D    571
     110       0       0       1       0                               0D    572
     126     479       0       0       0                        01010500D    573
     126       0       0       2       0                               0D    574
     110     481       0       0       0                        01010000D    575
     110       0       0       1       0                               0D    576
     126     482       0       0       0                        01010500D    577
     126       0       0       2       0                               0D    578
     110     484       0       0       0                        01010000D    579
     110       0       0       1       0                               0D    580
     102     485       0       0       0                        01010500D    581
     102       0       0       1       0                               0D    582
     102     486       0       0       0                        01010000D    583
     102       0       0       1       0                               0D    584
     142     487       0       0       0                        00010500D    585
     142       0       0       1       0                               0D    586
     126     488       0       0       0                        01010500D    587
     126       0       0      21       0                               0D    588
     124     509       0       0       0                        00000000D    589
     124       0       0       4       0                               0D    590
     100     513       0       0       0             589        01010000D    591
     100       0       0       1       0                               0D    592
     126     514       0       0       0                        01010500D    593
     126       0       0      21       0                               0D    594
     124     535       0       0       0                        00000000D    595
     124       0       0       5       0                               0D    596
     100     540       0       0       0             595        01010000D    597
     100       0       0       1       0                               0D    598
     102     541       0       0       0                        01010500D    599
     102       0       0       1       0                               0D    600
     102     542       0       0       0                        01010000D    601
     102       0       0       1       0                               0D    602
     142     543       0       0       0                        00010500D    603
     142       0       0       1       0                               0D    604
     144     544       0       0       0                        00000000D    605
     144       0      -1       1       0                               0D    606
     128     545       0       0       0                        01010000D    607
     128       0       0       3       0                               0D    608
     126     548       0       0       0                        01010500D    609
     126       0       0       6       0                               0D    610
     100     554       0       0       0                        01010000D    611
     100       0       0       2       0                               0D    612
     126     556       0       0       0                        01010500D    613
     126       0       0       2       0                               0D    614
     110     558       0       0       0                        01010000D    615
     110       0       0       1       0                               0D    616
     126     559       0       0       0                        01010500D    617
     126       0       0       6       0                               0D    618
     100     565       0       0       0                        01010000D    619
     100       0       0       2       0                               0D    620
     126     567       0       0       0                        01010500D    621
     126       0       0       2       0                               0D    622
     110     569       0       0       0                        01010000D    623
     110       0       0       1       0                               0D    624
     126     570       0       0       0                        01010500D    625
     126       0       0       2       0                               0D    626
     110     572       0       0       0                        01010000D    627
     110       0       0       1       0                               0D    628
     126     573       0       0       0                        01010500D    629
     126       0       0       2       0                               0D    630
     110     575       0       0       0                        01010000D    631
     110       0       0       1       0                               0D    632
     102     576       0       0       0                        01010500D    633
     102       0       0       1       0                               0D    634
     102     577       0       0       0                        01010000D    635
     102       0       0       1       0                               0D    636
     142     578       0       0       0                        00010500D    637
     142       0       0       1       0                               0D    638
     144     579       0       0       0                        00000000D    639
     144       0      -1       1       0                               0D    640
314,79.6078431372549,82.3529411764706,93.7254901960784,;               1P      1
110,4.45,4.,1.5,4.45,4.,-998.5;                                        3P      2
110,3.2,4.,0.5,3.2,4.,0.;                                              5P      3
120,3,5,0.,6.28318530717959;                                           7P      4
126,1,1,1,0,1,0,0.,0.,1.,1.,1.,1.,0.,6.283185307,0.,1.,                9P      5
6.283185307,0.,0.,1.,0.,0.,1.;                                         9P      6
110,3.2,4.,0.5,3.2,4.,0.;                                             11P      7
126,1,1,1,0,1,0,0.,0.,1.,1.,1.,1.,1.,6.283185307,0.,1.,               13P      8
3.141592654,0.,0.,1.,0.,0.,1.;                                        13P      9
100,0.,4.45,4.,3.2,4.,5.7,4.;                                         15P     10
126,1,1,1,0,1,0,0.,0.,1.,1.,1.,1.,1.,3.141592654,0.,0.,               17P     11
3.141592654,0.,0.,1.,0.,0.,1.;                                        17P     12
110,5.7,4.,0.,5.7,4.,0.5;                                             19P     13
126,1,1,1,0,1,0,0.,0.,1.,1.,1.,1.,0.,3.141592654,0.,0.,               21P     14
6.283185307,0.,0.,1.,0.,0.,1.;                                        21P     15
124,1.,-7.105427357601E-015,1.73472347597681E-016,                    23P     16
2.80470091595933E-014,-7.105427357601E-015,-1.,                       23P     17
6.98296267768627E-015,8.00000000000003,1.73472347597631E-016,         23P     18
-6.98296267768627E-015,-1.,1.00000000000002;                          23P     19
100,0.5,4.45,4.,5.7,4.,3.2,4.;                                        25P     20
102,4,9,13,17,21;                                                     27P     21
102,4,11,15,19,25;                                                    29P     22
142,1,7,27,29,1;                                                      31P     23
144,7,1,0,31;                                                         33P     24
128,1,1,1,1,0,0,1,0,0,0.,0.,1.,1.,0.,0.,1.,1.,1.,1.,1.,1.,0.,         35P     25
0.,0.,8.35,0.,0.,0.,8.,0.,8.35,8.,0.,0.,1.,0.,1.;                     35P     26
126,1,1,1,0,1,0,0.,0.,1.,1.,1.,1.,1.,1.,0.,0.,1.,0.,0.,1.,0.,         37P     27
0.,1.;                                                                37P     28
110,8.35,8.,0.,0.,8.,0.;                                              39P     29
126,1,1,1,0,1,0,0.,0.,1.,1.,1.,1.,0.,1.,0.,0.,0.,0.,0.,1.,0.,         41P     30
0.,1.;                                                                41P     31
110,0.,8.,0.,0.,0.,0.;                                                43P     32
126,1,1,1,0,1,0,0.,0.,1.,1.,1.,1.,0.,0.,0.,1.,0.,0.,0.,1.,0.,         45P     33
0.,1.;                                                                45P     34
110,0.,0.,0.,8.35,0.,0.;                                              47P     35
126,1,1,1,0,1,0,0.,0.,1.,1.,1.,1.,1.,0.,0.,1.,1.,0.,0.,1.,0.,         49P     36
0.,1.;                                                                49P     37
110,8.35,0.,0.,8.35,8.,0.;                                            51P     38
102,4,37,41,45,49;                                                    53P     39
102,4,39,43,47,51;                                                    55P     40
142,1,35,53,55,1;                                                     57P     41
126,32,2,1,0,1,0,0.,0.,0.,0.0625,0.0625,0.125,0.125,0.1875,           59P     42
0.1875,0.25,0.25,0.3125,0.3125,0.375,0.375,0.4375,0.4375,0.5,         59P     43
0.5,0.5625,0.5625,0.625,0.625,0.6875,0.6875,0.75,0.75,0.8125,         59P     44
0.8125,0.875,0.875,0.9375,0.9375,1.,1.,1.,1.,1.,1.,1.,1.,1.,1.,       59P     45
1.,1.,1.,1.,1.,1.,1.,1.,1.,1.,1.,1.,1.,1.,1.,1.,1.,1.,1.,1.,1.,       59P     46
1.,1.,1.,1.,1.,0.383233533,0.5,0.,0.383233533,0.515389282,0.,         59P     47
0.386109988,0.530482863,0.,0.388986443,0.545576444,0.,                59P     48
0.394628812,0.559794286,0.,0.400271182,0.574012129,0.,                59P     49
0.408462633,0.586807849,0.,0.416654084,0.599603569,0.,                59P     50
0.427079823,0.610485435,0.,0.437505563,0.6213673,0.,                  59P     51
0.449764935,0.629917127,0.,0.462024308,0.638466954,0.,                59P     52
0.475646193,0.644356177,0.,0.489268078,0.6502454,0.,                  59P     53
0.503728994,0.6532477,0.,0.51818991,0.65625,0.,0.532934132,           59P     54
0.65625,0.,0.547678354,0.65625,0.,0.56213927,0.6532477,0.,            59P     55
0.576600186,0.6502454,0.,0.590222071,0.644356177,0.,                  59P     56
0.603843956,0.638466954,0.,0.616103328,0.629917127,0.,                59P     57
0.628362701,0.6213673,0.,0.63878844,0.610485435,0.,0.64921418,        59P     58
0.599603569,0.,0.657405631,0.586807849,0.,0.665597081,                59P     59
0.574012129,0.,0.671239451,0.559794286,0.,0.67688182,                 59P     60
0.545576444,0.,0.679758276,0.530482863,0.,0.682634731,                59P     61
0.515389282,0.,0.682634731,0.5,0.,0.,1.,0.,0.,1.;                     59P     62
124,-1.,-6.98296267768627E-015,0.,8.90000000000003,                   61P     63
-6.98296267768627E-015,1.,-6.98296267768627E-015,                     61P     64
3.09233452638257E-014,4.87617677579594E-029,                          61P     65
-6.98296267768627E-015,-1.,2.79318507107449E-014;                     61P     66
100,0.,4.45,4.,5.7,4.,3.2,4.;                                         63P     67
126,32,2,1,0,1,0,0.,0.,0.,0.0625,0.0625,0.125,0.125,0.1875,           65P     68
0.1875,0.25,0.25,0.3125,0.3125,0.375,0.375,0.4375,0.4375,0.5,         65P     69
0.5,0.5625,0.5625,0.625,0.625,0.6875,0.6875,0.75,0.75,0.8125,         65P     70
0.8125,0.875,0.875,0.9375,0.9375,1.,1.,1.,1.,1.,1.,1.,1.,1.,1.,       65P     71
1.,1.,1.,1.,1.,1.,1.,1.,1.,1.,1.,1.,1.,1.,1.,1.,1.,1.,1.,1.,1.,       65P     72
1.,1.,1.,1.,1.,0.682634731,0.5,0.,0.682634731,0.484610718,0.,         65P     73
0.679758276,0.469517137,0.,0.67688182,0.454423556,0.,                 65P     74
0.671239451,0.440205714,0.,0.665597081,0.425987871,0.,                65P     75
0.657405631,0.413192151,0.,0.64921418,0.400396431,0.,                 65P     76
0.63878844,0.389514565,0.,0.628362701,0.3786327,0.,0.616103328,       65P     77
0.370082873,0.,0.603843956,0.361533046,0.,0.590222071,                65P     78
0.355643823,0.,0.576600186,0.3497546,0.,0.56213927,0.3467523,         65P     79
0.,0.547678354,0.34375,0.,0.532934132,0.34375,0.,0.51818991,          65P     80
0.34375,0.,0.503728994,0.3467523,0.,0.489268078,0.3497546,0.,         65P     81
0.475646193,0.355643823,0.,0.462024308,0.361533046,0.,                65P     82
0.449764935,0.370082873,0.,0.437505563,0.3786327,0.,                  65P     83
0.427079823,0.389514565,0.,0.416654084,0.400396431,0.,                65P     84
0.408462633,0.413192151,0.,0.400271182,0.425987871,0.,                65P     85
0.394628812,0.440205714,0.,0.388986443,0.454423556,0.,                65P     86
0.386109988,0.469517137,0.,0.383233533,0.484610718,0.,                65P     87
0.383233533,0.5,0.,0.,1.,0.,0.,1.;                                    65P     88
124,1.,-7.105427357601E-015,0.,2.82204815071909E-014,                 67P     89
-7.105427357601E-015,-1.,6.98296267768627E-015,                       67P     90
8.00000000000003,-4.96169340471387E-029,-6.98296267768627E-015,       67P     91
-1.,2.79318507107453E-014;                                            67P     92
100,0.,4.45,4.,5.7,4.,3.2,4.;                                         69P     93
102,2,59,65;                                                          71P     94
102,2,63,69;                                                          73P     95
142,1,35,71,73,1;                                                     75P     96
144,35,1,1,57,75;                                                     77P     97
110,8.45,1.74128497,1.5,8.45,1.74128497,-998.5;                       79P     98
110,8.35,1.74128497,0.434495,8.35,1.74128497,0.1;                     81P     99
120,79,81,0.,6.28318530717959;                                        83P    100
126,1,1,1,0,1,0,0.,0.,1.,1.,1.,1.,1.,0.,0.,0.005964215,0.,0.,         85P    101
0.,1.,0.,0.,1.;                                                       85P    102
110,8.35,1.74128497,0.1,8.35,1.74128497,0.4325;                       87P    103
126,2,2,1,0,1,0,0.,0.,0.,1.,1.,1.,1.,1.,1.,0.005964215,0.,0.,         89P    104
0.005964215,0.570713416,0.,0.020718811,1.557863715,0.,0.,1.,0.,       89P    105
0.,-1.;                                                               89P    106
126,3,3,1,0,0,0,0.,0.,0.,0.,1.,1.,1.,1.,1.,0.807776223417765,         91P    107
0.807776223417765,1.,8.35,1.74128497,0.4325,8.35,1.799264696,         91P    108
0.4325,8.390731897,1.840526799,0.430463405,8.448706775,               91P    109
1.841276608,0.427564661,0.,1.,0.,0.,0.;                               91P    110
126,1,1,1,0,1,0,0.,0.,1.,1.,1.,1.,0.020718811,1.557863715,0.,         93P    111
1.,1.557863715,0.,0.,1.,0.,0.,1.;                                     93P    112
110,8.448706775,1.841276608,0.427564661,8.448706775,                  95P    113
1.841276608,0.1;                                                      95P    114
126,1,1,1,0,1,0,0.,0.,1.,1.,1.,1.,1.,1.557863715,0.,1.,0.,0.,         97P    115
0.,1.,0.,0.,1.;                                                       97P    116
100,0.1,8.45,1.74128497,8.448706775,1.841276608,8.35,                 99P    117
1.74128497;                                                           99P    118
102,4,85,89,93,97;                                                   101P    119
102,4,87,91,95,99;                                                   103P    120
142,1,83,101,103,1;                                                  105P    121
144,83,1,0,105;                                                      107P    122
128,1,1,1,1,0,0,1,0,0,0.,0.,1.,1.,0.,0.,1.,1.,1.,1.,1.,1.,           109P    123
45.85,2.325,0.1,8.448706775,1.841276608,0.1,45.85,2.325,1.5,         109P    124
8.448706775,1.841276608,1.5,0.,1.,0.,1.;                             109P    125
126,1,1,1,0,1,0,0.,0.,1.,1.,1.,1.,1.,0.,0.,1.,0.233974758,0.,        111P    126
0.,1.,0.,0.,1.;                                                      111P    127
110,8.448706775,1.841276608,0.1,8.448706775,1.841276608,             113P    128
0.427564661;                                                         113P    129
126,1,1,1,0,1,0,0.,0.,1.,1.,1.,1.,1.,0.233974758,0.,                 115P    130
0.878311876,0.071428571,0.,0.,1.,0.,0.,1.;                           115P    131
110,8.448706775,1.841276608,0.427564661,13.,1.90014,0.2;             117P    132
126,1,1,1,0,1,0,0.,0.,1.,1.,1.,1.,0.878311876,0.071428571,0.,        119P    133
0.481266781,0.071428571,0.,0.,1.,0.,0.,1.;                           119P    134
110,13.,1.90014,0.2,27.85,2.0922,0.2;                                121P    135
126,1,1,1,0,1,0,0.,0.,1.,1.,1.,1.,0.481266781,0.071428571,0.,        123P    136
0.240633391,0.178571429,0.,0.,1.,0.,0.,1.;                           123P    137
110,27.85,2.0922,0.2,36.85,2.2086,0.35;                              125P    138
126,1,1,1,0,1,0,0.,0.,1.,1.,1.,1.,0.240633391,0.178571429,0.,        127P    139
0.240633391,1.,0.,0.,1.,0.,0.,1.;                                    127P    140
110,36.85,2.2086,0.35,36.85,2.2086,1.5;                              129P    141
126,1,1,1,0,1,0,0.,0.,1.,1.,1.,1.,0.240633391,1.,0.,0.,1.,0.,        131P    142
0.,1.,0.,0.,1.;                                                      131P    143
110,36.85,2.2086,1.5,45.85,2.325,1.5;                                133P    144
126,1,1,1,0,1,0,0.,0.,1.,1.,1.,1.,0.,1.,0.,0.,0.,0.,0.,1.,0.,        135P    145
0.,1.;                                                               135P    146
110,45.85,2.325,1.5,45.85,2.325,0.1;                                 137P    147
126,1,1,1,0,1,0,0.,0.,1.,1.,1.,1.,0.,0.,0.,1.,0.,0.,0.,1.,0.,        139P    148
0.,1.;                                                               139P    149
110,45.85,2.325,0.1,8.448706775,1.841276608,0.1;                     141P    150
102,8,111,115,119,123,127,131,135,139;                               143P    151
102,8,113,117,121,125,129,133,137,141;                               145P    152
142,1,109,143,145,1;                                                 147P    153
144,109,1,0,147;                                                     149P    154
128,1,1,1,1,0,0,1,0,0,0.,0.,1.,1.,0.,0.,1.,1.,1.,1.,1.,1.,           151P    155
45.85,2.325,0.1,45.85,2.325,1.5,45.85,5.675,0.1,45.85,5.675,         151P    156
1.5,0.,1.,0.,1.;                                                     151P    157
126,1,1,1,0,1,0,0.,0.,1.,1.,1.,1.,0.,0.,0.,1.,0.,0.,0.,1.,0.,        153P    158
0.,1.;                                                               153P    159
110,45.85,2.325,0.1,45.85,2.325,1.5;                                 155P    160
126,1,1,1,0,1,0,0.,0.,1.,1.,1.,1.,1.,0.,0.,1.,1.,0.,0.,1.,0.,        157P    161
0.,1.;                                                               157P    162
110,45.85,2.325,1.5,45.85,5.675,1.5;                                 159P    163
126,1,1,1,0,1,0,0.,0.,1.,1.,1.,1.,1.,1.,0.,0.,1.,0.,0.,1.,0.,        161P    164
0.,1.;                                                               161P    165
110,45.85,5.675,1.5,45.85,5.675,0.1;                                 163P    166
126,1,1,1,0,1,0,0.,0.,1.,1.,1.,1.,0.,1.,0.,0.,0.,0.,0.,1.,0.,        165P    167
0.,1.;                                                               165P    168
110,45.85,5.675,0.1,45.85,2.325,0.1;                                 167P    169
102,4,153,157,161,165;                                               169P    170
102,4,155,159,163,167;                                               171P    171
142,1,151,169,171,1;                                                 173P    172
144,151,1,0,173;                                                     175P    173
128,1,1,1,1,0,0,1,0,0,0.,0.,1.,1.,0.,0.,1.,1.,1.,1.,1.,1.,           177P    174
8.448706775,6.158723392,0.1,45.85,5.675,0.1,8.448706775,             177P    175
6.158723392,1.5,45.85,5.675,1.5,0.,1.,0.,1.;                         177P    176
126,1,1,1,0,1,0,0.,0.,1.,1.,1.,1.,1.,0.,0.,1.,1.,0.,0.,1.,0.,        179P    177
0.,1.;                                                               179P    178
110,45.85,5.675,0.1,45.85,5.675,1.5;                                 181P    179
126,1,1,1,0,1,0,0.,0.,1.,1.,1.,1.,1.,1.,0.,0.759366609,1.,0.,        183P    180
0.,1.,0.,0.,1.;                                                      183P    181
110,45.85,5.675,1.5,36.85,5.7914,1.5;                                185P    182
126,1,1,1,0,1,0,0.,0.,1.,1.,1.,1.,0.759366609,1.,0.,                 187P    183
0.759366609,0.178571429,0.,0.,1.,0.,0.,1.;                           187P    184
110,36.85,5.7914,1.5,36.85,5.7914,0.35;                              189P    185
126,1,1,1,0,1,0,0.,0.,1.,1.,1.,1.,0.759366609,0.178571429,0.,        191P    186
0.518733219,0.071428571,0.,0.,1.,0.,0.,1.;                           191P    187
110,36.85,5.7914,0.35,27.85,5.9078,0.2;                              193P    188
126,1,1,1,0,1,0,0.,0.,1.,1.,1.,1.,0.518733219,0.071428571,0.,        195P    189
0.121688124,0.071428571,0.,0.,1.,0.,0.,1.;                           195P    190
110,27.85,5.9078,0.2,13.,6.09986,0.2;                                197P    191
126,1,1,1,0,1,0,0.,0.,1.,1.,1.,1.,0.121688124,0.071428571,0.,        199P    192
0.,0.233974758,0.,0.,1.,0.,0.,1.;                                    199P    193
110,13.,6.09986,0.2,8.448706775,6.158723392,0.427564661;             201P    194
126,1,1,1,0,1,0,0.,0.,1.,1.,1.,1.,0.,0.233974758,0.,0.,0.,0.,        203P    195
0.,1.,0.,0.,1.;                                                      203P    196
110,8.448706775,6.158723392,0.427564661,8.448706775,                 205P    197
6.158723392,0.1;                                                     205P    198
126,1,1,1,0,1,0,0.,0.,1.,1.,1.,1.,0.,0.,0.,1.,0.,0.,0.,1.,0.,        207P    199
0.,1.;                                                               207P    200
110,8.448706775,6.158723392,0.1,45.85,5.675,0.1;                     209P    201
102,8,179,183,187,191,195,199,203,207;                               211P    202
102,8,181,185,189,193,197,201,205,209;                               213P    203
142,1,177,211,213,1;                                                 215P    204
144,177,1,0,215;                                                     217P    205
110,8.45,6.25871503,1.5,8.45,6.25871503,-998.5;                      219P    206
110,8.35,6.25871503,0.434495,8.35,6.25871503,0.1;                    221P    207
120,219,221,0.,6.28318530717959;                                     223P    208
126,1,1,1,0,1,0,0.,0.,1.,1.,1.,1.,1.,4.725321593,0.,                 225P    209
0.020718811,4.725321593,0.,0.,1.,0.,0.,1.;                           225P    210
110,8.448706775,6.158723392,0.1,8.448706775,6.158723392,             227P    211
0.427564661;                                                         227P    212
126,2,2,1,0,1,0,0.,0.,0.,1.,1.,1.,1.,1.,1.,0.020718811,              229P    213
4.725321593,0.,0.005964215,5.712471891,0.,0.005964215,               229P    214
6.283185307,0.,0.,1.,0.,0.,-1.;                                      229P    215
126,3,3,1,0,0,0,0.,0.,0.,0.,1.,1.,1.,1.,1.,0.807776223417765,        231P    216
0.807776223417765,1.,8.448706775,6.158723392,0.427564661,            231P    217
8.390731897,6.159473201,0.430463405,8.35,6.200735304,0.4325,         231P    218
8.35,6.25871503,0.4325,0.,1.,0.,0.,0.;                               231P    219
126,1,1,1,0,1,0,0.,0.,1.,1.,1.,1.,0.005964215,6.283185307,0.,        233P    220
1.,6.283185307,0.,0.,1.,0.,0.,1.;                                    233P    221
110,8.35,6.25871503,0.4325,8.35,6.25871503,0.1;                      235P    222
126,1,1,1,0,1,0,0.,0.,1.,1.,1.,1.,1.,6.283185307,0.,1.,              237P    223
4.725321593,0.,0.,1.,0.,0.,1.;                                       237P    224
100,0.1,8.45,6.25871503,8.35,6.25871503,8.448706775,                 239P    225
6.158723392;                                                         239P    226
102,4,225,229,233,237;                                               241P    227
102,4,227,231,235,239;                                               243P    228
142,1,223,241,243,1;                                                 245P    229
144,223,1,0,245;                                                     247P    230
128,1,1,1,1,0,0,1,0,0,0.,0.,1.,1.,0.,0.,1.,1.,1.,1.,1.,1.,0.,        249P    231
0.,0.5,0.,0.,0.,0.,8.,0.5,0.,8.,0.,0.,1.,0.,1.;                      249P    232
126,1,1,1,0,1,0,0.,0.,1.,1.,1.,1.,1.,1.,0.,0.,1.,0.,0.,1.,0.,        251P    233
0.,1.;                                                               251P    234
110,0.,8.,0.,0.,8.,0.5;                                              253P    235
126,1,1,1,0,1,0,0.,0.,1.,1.,1.,1.,0.,1.,0.,0.,0.,0.,0.,1.,0.,        255P    236
0.,1.;                                                               255P    237
110,0.,8.,0.5,0.,0.,0.5;                                             257P    238
126,1,1,1,0,1,0,0.,0.,1.,1.,1.,1.,0.,0.,0.,1.,0.,0.,0.,1.,0.,        259P    239
0.,1.;                                                               259P    240
110,0.,0.,0.5,0.,0.,0.;                                              261P    241
126,1,1,1,0,1,0,0.,0.,1.,1.,1.,1.,1.,0.,0.,1.,1.,0.,0.,1.,0.,        263P    242
0.,1.;                                                               263P    243
110,0.,0.,0.,0.,8.,0.;                                               265P    244
102,4,251,255,259,263;                                               267P    245
102,4,253,257,261,265;                                               269P    246
142,1,249,267,269,1;                                                 271P    247
144,249,1,0,271;                                                     273P    248
110,4.45,4.,1.5,4.45,4.,-998.5;                                      275P    249
110,3.2,4.,0.5,3.2,4.,0.;                                            277P    250
120,275,277,0.,6.28318530717959;                                     279P    251
126,1,1,1,0,1,0,0.,0.,1.,1.,1.,1.,1.,3.141592654,0.,1.,0.,0.,        281P    252
0.,1.,0.,0.,1.;                                                      281P    253
100,0.,4.45,4.,5.7,4.,3.2,4.;                                        283P    254
126,1,1,1,0,1,0,0.,0.,1.,1.,1.,1.,1.,0.,0.,0.,0.,0.,0.,1.,0.,        285P    255
0.,1.;                                                               285P    256
110,3.2,4.,0.,3.2,4.,0.5;                                            287P    257
126,1,1,1,0,1,0,0.,0.,1.,1.,1.,1.,0.,0.,0.,0.,3.141592654,0.,        289P    258
0.,1.,0.,0.,1.;                                                      289P    259
124,-1.,-6.98296267768627E-015,1.73472347597681E-016,                291P    260
8.90000000000003,-6.98296267768627E-015,1.,                          291P    261
-6.98296267768627E-015,3.44368609895583E-014,                        291P    262
-1.73472347597632E-016,-6.98296267768627E-015,-1.,                   291P    263
1.00000000000003;                                                    291P    264
100,0.5,4.45,4.,5.7,4.,3.2,4.;                                       293P    265
126,1,1,1,0,1,0,0.,0.,1.,1.,1.,1.,0.,3.141592654,0.,1.,              295P    266
3.141592654,0.,0.,1.,0.,0.,1.;                                       295P    267
110,5.7,4.,0.5,5.7,4.,0.;                                            297P    268
102,4,281,285,289,295;                                               299P    269
102,4,283,287,293,297;                                               301P    270
142,1,279,299,301,1;                                                 303P    271
144,279,1,0,303;                                                     305P    272
128,1,1,1,1,0,0,1,0,0,0.,0.,1.,1.,0.,0.,1.,1.,1.,1.,1.,1.,           307P    273
36.85,2.1871032,1.5,45.85,2.1871032,1.5,36.85,5.8128968,1.5,         307P    274
45.85,5.8128968,1.5,0.,1.,0.,1.;                                     307P    275
126,1,1,1,0,1,0,0.,0.,1.,1.,1.,1.,0.,0.994071146,0.,0.,              309P    276
0.005928854,0.,0.,1.,0.,0.,1.;                                       309P    277
110,36.85,5.7914,1.5,36.85,2.2086,1.5;                               311P    278
126,1,1,1,0,1,0,0.,0.,1.,1.,1.,1.,0.,0.005928854,0.,1.,              313P    279
0.03803217,0.,0.,1.,0.,0.,1.;                                        313P    280
110,36.85,2.2086,1.5,45.85,2.325,1.5;                                315P    281
126,1,1,1,0,1,0,0.,0.,1.,1.,1.,1.,1.,0.03803217,0.,1.,               317P    282
0.96196783,0.,0.,1.,0.,0.,1.;                                        317P    283
110,45.85,2.325,1.5,45.85,5.675,1.5;                                 319P    284
126,1,1,1,0,1,0,0.,0.,1.,1.,1.,1.,1.,0.96196783,0.,0.,               321P    285
0.994071146,0.,0.,1.,0.,0.,1.;                                       321P    286
110,45.85,5.675,1.5,36.85,5.7914,1.5;                                323P    287
102,4,309,313,317,321;                                               325P    288
102,4,311,315,319,323;                                               327P    289
142,1,307,325,327,1;                                                 329P    290
144,307,1,0,329;                                                     331P    291
128,1,1,1,1,0,0,1,0,0,0.,0.,1.,1.,0.,0.,1.,1.,1.,1.,1.,1.,0.,        333P    292
0.,0.,0.,0.,0.5,8.35,0.,0.,8.35,0.,0.5,0.,1.,0.,1.;                  333P    293
126,1,1,1,0,1,0,0.,0.,1.,1.,1.,1.,0.,0.,0.,1.,0.,0.,0.,1.,0.,        335P    294
0.,1.;                                                               335P    295
110,0.,0.,0.,0.,0.,0.5;                                              337P    296
126,1,1,1,0,1,0,0.,0.,1.,1.,1.,1.,1.,0.,0.,1.,0.838323353,0.,        339P    297
0.,1.,0.,0.,1.;                                                      339P    298
110,0.,0.,0.5,7.,0.,0.5;                                             341P    299
126,1,1,1,0,1,0,0.,0.,1.,1.,1.,1.,1.,0.838323353,0.,0.865,1.,        343P    300
0.,0.,1.,0.,0.,1.;                                                   343P    301
110,7.,0.,0.5,8.35,0.,0.4325;                                        345P    302
126,1,1,1,0,1,0,0.,0.,1.,1.,1.,1.,0.865,1.,0.,0.,1.,0.,0.,1.,        347P    303
0.,0.,1.;                                                            347P    304
110,8.35,0.,0.4325,8.35,0.,0.;                                       349P    305
126,1,1,1,0,1,0,0.,0.,1.,1.,1.,1.,0.,1.,0.,0.,0.,0.,0.,1.,0.,        351P    306
0.,1.;                                                               351P    307
110,8.35,0.,0.,0.,0.,0.;                                             353P    308
102,5,335,339,343,347,351;                                           355P    309
102,5,337,341,345,349,353;                                           357P    310
142,1,333,355,357,1;                                                 359P    311
144,333,1,0,359;                                                     361P    312
128,1,1,1,1,0,0,1,0,0,0.,0.,1.,1.,0.,0.,1.,1.,1.,1.,1.,1.,8.35,      363P    313
0.,0.,8.35,0.,0.4325,8.35,8.,0.,8.35,8.,0.4325,0.,1.,0.,1.;          363P    314
126,1,1,1,0,1,0,0.,0.,1.,1.,1.,1.,0.,0.,0.,1.,0.,0.,0.,1.,0.,        365P    315
0.,1.;                                                               365P    316
110,8.35,0.,0.,8.35,0.,0.4325;                                       367P    317
126,1,1,1,0,1,0,0.,0.,1.,1.,1.,1.,1.,0.,0.,1.,0.217660621,0.,        369P    318
0.,1.,0.,0.,1.;                                                      369P    319
110,8.35,0.,0.4325,8.35,1.74128497,0.4325;                           371P    320
126,1,1,1,0,1,0,0.,0.,1.,1.,1.,1.,1.,0.217660621,0.,                 373P    321
0.231213873,0.217660621,0.,0.,1.,0.,0.,1.;                           373P    322
110,8.35,1.74128497,0.4325,8.35,1.74128497,0.1;                      375P    323
126,1,1,1,0,1,0,0.,0.,1.,1.,1.,1.,0.231213873,0.217660621,0.,        377P    324
0.231213873,0.782339379,0.,0.,1.,0.,0.,1.;                           377P    325
110,8.35,1.74128497,0.1,8.35,6.25871503,0.1;                         379P    326
126,1,1,1,0,1,0,0.,0.,1.,1.,1.,1.,0.231213873,0.782339379,0.,        381P    327
1.,0.782339379,0.,0.,1.,0.,0.,1.;                                    381P    328
110,8.35,6.25871503,0.1,8.35,6.25871503,0.4325;                      383P    329
126,1,1,1,0,1,0,0.,0.,1.,1.,1.,1.,1.,0.782339379,0.,1.,1.,0.,        385P    330
0.,1.,0.,0.,1.;                                                      385P    331
110,8.35,6.25871503,0.4325,8.35,8.,0.4325;                           387P    332
126,1,1,1,0,1,0,0.,0.,1.,1.,1.,1.,1.,1.,0.,0.,1.,0.,0.,1.,0.,        389P    333
0.,1.;                                                               389P    334
110,8.35,8.,0.4325,8.35,8.,0.;                                       391P    335
126,1,1,1,0,1,0,0.,0.,1.,1.,1.,1.,0.,1.,0.,0.,0.,0.,0.,1.,0.,        393P    336
0.,1.;                                                               393P    337
110,8.35,8.,0.,8.35,0.,0.;                                           395P    338
102,8,365,369,373,377,381,385,389,393;                               397P    339
102,8,367,371,375,379,383,387,391,395;                               399P    340
142,1,363,397,399,1;                                                 401P    341
144,363,1,0,401;                                                     403P    342
128,1,1,1,1,0,0,1,0,0,0.,0.,1.,1.,0.,0.,1.,1.,1.,1.,1.,1.,0.,        405P    343
8.,0.5,0.,8.,0.,8.35,8.,0.5,8.35,8.,0.,0.,1.,0.,1.;                  405P    344
126,1,1,1,0,1,0,0.,0.,1.,1.,1.,1.,1.,1.,0.,0.135,1.,0.,0.,1.,        407P    345
0.,0.,1.;                                                            407P    346
110,8.35,8.,0.,8.35,8.,0.4325;                                       409P    347
126,1,1,1,0,1,0,0.,0.,1.,1.,1.,1.,0.135,1.,0.,0.,0.838323353,        411P    348
0.,0.,1.,0.,0.,1.;                                                   411P    349
110,8.35,8.,0.4325,7.,8.,0.5;                                        413P    350
126,1,1,1,0,1,0,0.,0.,1.,1.,1.,1.,0.,0.838323353,0.,0.,0.,0.,        415P    351
0.,1.,0.,0.,1.;                                                      415P    352
110,7.,8.,0.5,0.,8.,0.5;                                             417P    353
126,1,1,1,0,1,0,0.,0.,1.,1.,1.,1.,0.,0.,0.,1.,0.,0.,0.,1.,0.,        419P    354
0.,1.;                                                               419P    355
110,0.,8.,0.5,0.,8.,0.;                                              421P    356
126,1,1,1,0,1,0,0.,0.,1.,1.,1.,1.,1.,0.,0.,1.,1.,0.,0.,1.,0.,        423P    357
0.,1.;                                                               423P    358
110,0.,8.,0.,8.35,8.,0.;                                             425P    359
102,5,407,411,415,419,423;                                           427P    360
102,5,409,413,417,421,425;                                           429P    361
142,1,405,427,429,1;                                                 431P    362
144,405,1,0,431;                                                     433P    363
128,1,1,1,1,0,0,1,0,0,0.,0.,1.,1.,0.,0.,1.,1.,1.,1.,1.,1.,13.,       435P    364
1.87494168,0.2,27.85,1.87494168,0.2,13.,6.12505832,0.2,27.85,        435P    365
6.12505832,0.2,0.,1.,0.,1.;                                          435P    366
126,1,1,1,0,1,0,0.,0.,1.,1.,1.,1.,0.,0.005928854,0.,1.,              437P    367
0.051118202,0.,0.,1.,0.,0.,1.;                                       437P    368
110,13.,1.90014,0.2,27.85,2.0922,0.2;                                439P    369
126,1,1,1,0,1,0,0.,0.,1.,1.,1.,1.,1.,0.051118202,0.,1.,              441P    370
0.948881798,0.,0.,1.,0.,0.,1.;                                       441P    371
110,27.85,2.0922,0.2,27.85,5.9078,0.2;                               443P    372
126,1,1,1,0,1,0,0.,0.,1.,1.,1.,1.,1.,0.948881798,0.,0.,              445P    373
0.994071146,0.,0.,1.,0.,0.,1.;                                       445P    374
110,27.85,5.9078,0.2,13.,6.09986,0.2;                                447P    375
126,1,1,1,0,1,0,0.,0.,1.,1.,1.,1.,0.,0.994071146,0.,0.,              449P    376
0.005928854,0.,0.,1.,0.,0.,1.;                                       449P    377
110,13.,6.09986,0.2,13.,1.90014,0.2;                                 451P    378
102,4,437,441,445,449;                                               453P    379
102,4,439,443,447,451;                                               455P    380
142,1,435,453,455,1;                                                 457P    381
144,435,1,0,457;                                                     459P    382
128,1,1,1,1,0,0,1,0,0,0.,0.,1.,1.,0.,0.,1.,1.,1.,1.,1.,1.,           461P    383
36.85,2.2086,1.5,36.85,2.2086,0.35,36.85,5.7914,1.5,36.85,           461P    384
5.7914,0.35,0.,1.,0.,1.;                                             461P    385
126,1,1,1,0,1,0,0.,0.,1.,1.,1.,1.,0.,0.,0.,1.,0.,0.,0.,1.,0.,        463P    386
0.,1.;                                                               463P    387
110,36.85,2.2086,1.5,36.85,2.2086,0.35;                              465P    388
126,1,1,1,0,1,0,0.,0.,1.,1.,1.,1.,1.,0.,0.,1.,1.,0.,0.,1.,0.,        467P    389
0.,1.;                                                               467P    390
110,36.85,2.2086,0.35,36.85,5.7914,0.35;                             469P    391
126,1,1,1,0,1,0,0.,0.,1.,1.,1.,1.,1.,1.,0.,0.,1.,0.,0.,1.,0.,        471P    392
0.,1.;                                                               471P    393
110,36.85,5.7914,0.35,36.85,5.7914,1.5;                              473P    394
126,1,1,1,0,1,0,0.,0.,1.,1.,1.,1.,0.,1.,0.,0.,0.,0.,0.,1.,0.,        475P    395
0.,1.;                                                               475P    396
110,36.85,5.7914,1.5,36.85,2.2086,1.5;                               477P    397
102,4,463,467,471,475;                                               479P    398
102,4,465,469,473,477;                                               481P    399
142,1,461,479,481,1;                                                 483P    400
144,461,1,0,483;                                                     485P    401
128,1,1,1,1,0,0,1,0,0,0.,0.,1.,1.,0.,0.,1.,1.,1.,1.,1.,1.,           487P    402
27.85,2.0693064,0.2,36.85,2.0693064,0.35,27.85,5.9306936,0.2,        487P    403
36.85,5.9306936,0.35,0.,1.,0.,1.;                                    487P    404
126,1,1,1,0,1,0,0.,0.,1.,1.,1.,1.,0.,0.005928854,0.,1.,              489P    405
0.036073461,0.,0.,1.,0.,0.,1.;                                       489P    406
110,27.85,2.0922,0.2,36.85,2.2086,0.35;                              491P    407
126,1,1,1,0,1,0,0.,0.,1.,1.,1.,1.,1.,0.036073461,0.,1.,              493P    408
0.963926539,0.,0.,1.,0.,0.,1.;                                       493P    409
110,36.85,2.2086,0.35,36.85,5.7914,0.35;                             495P    410
126,1,1,1,0,1,0,0.,0.,1.,1.,1.,1.,1.,0.963926539,0.,0.,              497P    411
0.994071146,0.,0.,1.,0.,0.,1.;                                       497P    412
110,36.85,5.7914,0.35,27.85,5.9078,0.2;                              499P    413
126,1,1,1,0,1,0,0.,0.,1.,1.,1.,1.,0.,0.994071146,0.,0.,              501P    414
0.005928854,0.,0.,1.,0.,0.,1.;                                       501P    415
110,27.85,5.9078,0.2,27.85,2.0922,0.2;                               503P    416
102,4,489,493,497,501;                                               505P    417
102,4,491,495,499,503;                                               507P    418
142,1,487,505,507,1;                                                 509P    419
144,487,1,0,509;                                                     511P    420
128,1,1,1,1,0,0,1,0,0,0.,0.,1.,1.,0.,0.,1.,1.,1.,1.,1.,1.,13.,       513P    421
0.,0.2,7.,0.,0.5,13.,8.,0.2,7.,8.,0.5,0.,1.,0.,1.;                   513P    422
126,1,1,1,0,1,0,0.,0.,1.,1.,1.,1.,0.775,0.217660621,0.,0.775,        515P    423
0.,0.,0.,1.,0.,0.,1.;                                                515P    424
110,8.35,1.74128497,0.4325,8.35,0.,0.4325;                           517P    425
126,1,1,1,0,1,0,0.,0.,1.,1.,1.,1.,0.775,0.,0.,1.,0.,0.,0.,1.,        519P    426
0.,0.,1.;                                                            519P    427
110,8.35,0.,0.4325,7.,0.,0.5;                                        521P    428
126,1,1,1,0,1,0,0.,0.,1.,1.,1.,1.,1.,0.,0.,1.,1.,0.,0.,1.,0.,        523P    429
0.,1.;                                                               523P    430
110,7.,0.,0.5,7.,8.,0.5;                                             525P    431
126,1,1,1,0,1,0,0.,0.,1.,1.,1.,1.,1.,1.,0.,0.775,1.,0.,0.,1.,        527P    432
0.,0.,1.;                                                            527P    433
110,7.,8.,0.5,8.35,8.,0.4325;                                        529P    434
126,1,1,1,0,1,0,0.,0.,1.,1.,1.,1.,0.775,1.,0.,0.775,                 531P    435
0.782339379,0.,0.,1.,0.,0.,1.;                                       531P    436
110,8.35,8.,0.4325,8.35,6.25871503,0.4325;                           533P    437
126,8,2,1,0,1,0,0.,0.,0.,0.25,0.25,0.5,0.5,0.75,0.75,1.,1.,1.,       535P    438
1.,1.,1.,1.,1.,1.,1.,1.,1.,0.775,0.782339379,0.,0.775,               535P    439
0.779873974,0.,0.773751866,0.777593199,0.,0.772503733,               535P    440
0.775312423,0.,0.770194406,0.773557883,0.,0.767885079,               535P    441
0.771803342,0.,0.76486044,0.770837825,0.,0.761835802,                535P    442
0.769872307,0.,0.758548871,0.769840424,0.,0.,1.,0.,0.,1.;            535P    443
126,3,3,1,0,0,0,0.,0.,0.,0.,1.,1.,1.,1.,1.,0.807776223417765,        537P    444
0.807776223417765,1.,8.35,6.25871503,0.4325,8.35,6.200735304,        537P    445
0.4325,8.390731897,6.159473201,0.430463405,8.448706775,              537P    446
6.158723392,0.427564661,0.,1.,0.,0.,0.;                              537P    447
126,1,1,1,0,1,0,0.,0.,1.,1.,1.,1.,0.758548871,0.769840424,0.,        539P    448
0.,0.7624825,0.,0.,1.,0.,0.,1.;                                      539P    449
110,8.448706775,6.158723392,0.427564661,13.,6.09986,0.2;             541P    450
126,1,1,1,0,1,0,0.,0.,1.,1.,1.,1.,0.,0.7624825,0.,0.,0.2375175,      543P    451
0.,0.,1.,0.,0.,1.;                                                   543P    452
110,13.,6.09986,0.2,13.,1.90014,0.2;                                 545P    453
126,1,1,1,0,1,0,0.,0.,1.,1.,1.,1.,0.,0.2375175,0.,0.758548871,       547P    454
0.230159576,0.,0.,1.,0.,0.,1.;                                       547P    455
110,13.,1.90014,0.2,8.448706775,1.841276608,0.427564661;             549P    456
126,8,2,1,0,1,0,0.,0.,0.,0.25,0.25,0.5,0.5,0.75,0.75,1.,1.,1.,       551P    457
1.,1.,1.,1.,1.,1.,1.,1.,1.,0.758548871,0.230159576,0.,               551P    458
0.761835802,0.230127693,0.,0.76486044,0.229162175,0.,                551P    459
0.767885079,0.228196658,0.,0.770194406,0.226442117,0.,               551P    460
0.772503733,0.224687577,0.,0.773751866,0.222406801,0.,0.775,         551P    461
0.220126026,0.,0.775,0.217660621,0.,0.,1.,0.,0.,1.;                  551P    462
126,3,3,1,0,0,0,0.,0.,0.,0.,1.,1.,1.,1.,1.,0.807776223417765,        553P    463
0.807776223417765,1.,8.448706775,1.841276608,0.427564661,            553P    464
8.390731897,1.840526799,0.430463405,8.35,1.799264696,0.4325,         553P    465
8.35,1.74128497,0.4325,0.,1.,0.,0.,0.;                               553P    466
102,10,515,519,523,527,531,535,539,543,547,551;                      555P    467
102,10,517,521,525,529,533,537,541,545,549,553;                      557P    468
142,1,513,555,557,1;                                                 559P    469
144,513,1,0,559;                                                     561P    470
128,1,1,1,1,0,0,1,0,0,0.,0.,1.,1.,0.,0.,1.,1.,1.,1.,1.,1.,0.,        563P    471
0.,0.5,7.,0.,0.5,0.,8.,0.5,7.,8.,0.5,0.,1.,0.,1.;                    563P    472
126,1,1,1,0,1,0,0.,0.,1.,1.,1.,1.,0.,0.,0.,1.,0.,0.,0.,1.,0.,        565P    473
0.,1.;                                                               565P    474
110,0.,0.,0.5,7.,0.,0.5;                                             567P    475
126,1,1,1,0,1,0,0.,0.,1.,1.,1.,1.,1.,0.,0.,1.,1.,0.,0.,1.,0.,        569P    476
0.,1.;                                                               569P    477
110,7.,0.,0.5,7.,8.,0.5;                                             571P    478
126,1,1,1,0,1,0,0.,0.,1.,1.,1.,1.,1.,1.,0.,0.,1.,0.,0.,1.,0.,        573P    479
0.,1.;                                                               573P    480
110,7.,8.,0.5,0.,8.,0.5;                                             575P    481
126,1,1,1,0,1,0,0.,0.,1.,1.,1.,1.,0.,1.,0.,0.,0.,0.,0.,1.,0.,        577P    482
0.,1.;                                                               577P    483
110,0.,8.,0.5,0.,0.,0.5;                                             579P    484
102,4,565,569,573,577;                                               581P    485
102,4,567,571,575,579;                                               583P    486
142,1,563,581,583,1;                                                 585P    487
126,32,2,1,0,1,0,0.,0.,0.,0.0625,0.0625,0.125,0.125,0.1875,          587P    488
0.1875,0.25,0.25,0.3125,0.3125,0.375,0.375,0.4375,0.4375,0.5,        587P    489
0.5,0.5625,0.5625,0.625,0.625,0.6875,0.6875,0.75,0.75,0.8125,        587P    490
0.8125,0.875,0.875,0.9375,0.9375,1.,1.,1.,1.,1.,1.,1.,1.,1.,1.,      587P    491
1.,1.,1.,1.,1.,1.,1.,1.,1.,1.,1.,1.,1.,1.,1.,1.,1.,1.,1.,1.,1.,      587P    492
1.,1.,1.,1.,1.,0.814285714,0.5,0.,0.814285714,0.484610718,0.,        587P    493
0.810854514,0.469517137,0.,0.807423314,0.454423556,0.,               587P    494
0.800692774,0.440205714,0.,0.793962233,0.425987871,0.,               587P    495
0.784191002,0.413192151,0.,0.774419771,0.400396431,0.,               587P    496
0.761983354,0.389514565,0.,0.749546936,0.3786327,0.,                 587P    497
0.734923256,0.370082873,0.,0.720299576,0.361533046,0.,               587P    498
0.704050613,0.355643823,0.,0.68780165,0.3497546,0.,0.670551843,      587P    499
0.3467523,0.,0.653302036,0.34375,0.,0.635714286,0.34375,0.,          587P    500
0.618126535,0.34375,0.,0.600876728,0.3467523,0.,0.583626921,         587P    501
0.3497546,0.,0.567377959,0.355643823,0.,0.551128996,                 587P    502
0.361533046,0.,0.536505316,0.370082873,0.,0.521881635,               587P    503
0.3786327,0.,0.509445218,0.389514565,0.,0.4970088,0.400396431,       587P    504
0.,0.487237569,0.413192151,0.,0.477466339,0.425987871,0.,            587P    505
0.470735798,0.440205714,0.,0.464005257,0.454423556,0.,               587P    506
0.460574057,0.469517137,0.,0.457142857,0.484610718,0.,               587P    507
0.457142857,0.5,0.,0.,1.,0.,0.,1.;                                   587P    508
124,1.,-7.105427357601E-015,1.73472347597681E-016,                   589P    509
2.80470091595933E-014,-7.105427357601E-015,-1.,                      589P    510
6.98296267768627E-015,8.00000000000003,1.73472347597631E-016,        589P    511
-6.98296267768627E-015,-1.,1.00000000000002;                         589P    512
100,0.5,4.45,4.,5.7,4.,3.2,4.;                                       591P    513
126,32,2,1,0,1,0,0.,0.,0.,0.0625,0.0625,0.125,0.125,0.1875,          593P    514
0.1875,0.25,0.25,0.3125,0.3125,0.375,0.375,0.4375,0.4375,0.5,        593P    515
0.5,0.5625,0.5625,0.625,0.625,0.6875,0.6875,0.75,0.75,0.8125,        593P    516
0.8125,0.875,0.875,0.9375,0.9375,1.,1.,1.,1.,1.,1.,1.,1.,1.,1.,      593P    517
1.,1.,1.,1.,1.,1.,1.,1.,1.,1.,1.,1.,1.,1.,1.,1.,1.,1.,1.,1.,1.,      593P    518
1.,1.,1.,1.,1.,0.457142857,0.5,0.,0.457142857,0.515389282,0.,        593P    519
0.460574057,0.530482863,0.,0.464005257,0.545576444,0.,               593P    520
0.470735798,0.559794286,0.,0.477466339,0.574012129,0.,               593P    521
0.487237569,0.586807849,0.,0.4970088,0.599603569,0.,                 593P    522
0.509445218,0.610485435,0.,0.521881635,0.6213673,0.,                 593P    523
0.536505316,0.629917127,0.,0.551128996,0.638466954,0.,               593P    524
0.567377959,0.644356177,0.,0.583626921,0.6502454,0.,                 593P    525
0.600876728,0.6532477,0.,0.618126535,0.65625,0.,0.635714286,         593P    526
0.65625,0.,0.653302036,0.65625,0.,0.670551843,0.6532477,0.,          593P    527
0.68780165,0.6502454,0.,0.704050613,0.644356177,0.,0.720299576,      593P    528
0.638466954,0.,0.734923256,0.629917127,0.,0.749546936,               593P    529
0.6213673,0.,0.761983354,0.610485435,0.,0.774419771,                 593P    530
0.599603569,0.,0.784191002,0.586807849,0.,0.793962233,               593P    531
0.574012129,0.,0.800692774,0.559794286,0.,0.807423314,               593P    532
0.545576444,0.,0.810854514,0.530482863,0.,0.814285714,               593P    533
0.515389282,0.,0.814285714,0.5,0.,0.,1.,0.,0.,1.;                    593P    534
124,-1.,-6.98296267768627E-015,1.73472347597681E-016,                595P    535
8.90000000000003,-6.98296267768627E-015,1.,                          595P    536
-6.98296267768627E-015,3.44368609895583E-014,                        595P    537
-1.73472347597632E-016,-6.98296267768627E-015,-1.,                   595P    538
1.00000000000003;                                                    595P    539
100,0.5,4.45,4.,5.7,4.,3.2,4.;                                       597P    540
102,2,587,593;                                                       599P    541
102,2,591,597;                                                       601P    542
142,1,563,599,601,1;                                                 603P    543
144,563,1,1,585,603;                                                 605P    544
128,1,1,1,1,0,0,1,0,0,0.,0.,1.,1.,0.,0.,1.,1.,1.,1.,1.,1.,           607P    545
45.85,1.71418039,0.1,8.35,1.71418039,0.1,45.85,6.28581961,0.1,       607P    546
8.35,6.28581961,0.1,0.,1.,0.,1.;                                     607P    547
126,8,2,1,0,1,0,0.,0.,0.,0.25,0.25,0.5,0.5,0.75,0.75,1.,1.,1.,       609P    548
1.,1.,1.,1.,1.,1.,1.,1.,1.,0.997367819,0.027801017,0.,               609P    549
0.997893728,0.027745224,0.,0.99837767,0.026055646,0.,                609P    550
0.998861613,0.024366068,0.,0.999231105,0.021295763,0.,               609P    551
0.999600597,0.018225459,0.,0.999800299,0.014234286,0.,1.,            609P    552
0.010243113,0.,1.,0.005928854,0.,0.,1.,0.,0.,1.;                     609P    553
100,0.1,8.45,1.74128497,8.448706775,1.841276608,8.35,                611P    554
1.74128497;                                                          611P    555
126,1,1,1,0,1,0,0.,0.,1.,1.,1.,1.,1.,0.005928854,0.,1.,              613P    556
0.994071146,0.,0.,1.,0.,0.,1.;                                       613P    557
110,8.35,1.74128497,0.1,8.35,6.25871503,0.1;                         615P    558
126,8,2,1,0,1,0,0.,0.,0.,0.25,0.25,0.5,0.5,0.75,0.75,1.,1.,1.,       617P    559
1.,1.,1.,1.,1.,1.,1.,1.,1.,1.,0.994071146,0.,1.,0.989756887,0.,      617P    560
0.999800299,0.985765714,0.,0.999600597,0.981774541,0.,               617P    561
0.999231105,0.978704237,0.,0.998861613,0.975633932,0.,               617P    562
0.99837767,0.973944354,0.,0.997893728,0.972254776,0.,                617P    563
0.997367819,0.972198983,0.,0.,1.,0.,0.,1.;                           617P    564
100,0.1,8.45,6.25871503,8.35,6.25871503,8.448706775,                 619P    565
6.158723392;                                                         619P    566
126,1,1,1,0,1,0,0.,0.,1.,1.,1.,1.,0.997367819,0.972198983,0.,        621P    567
0.,0.866389367,0.,0.,1.,0.,0.,1.;                                    621P    568
110,8.448706775,6.158723392,0.1,45.85,5.675,0.1;                     623P    569
126,1,1,1,0,1,0,0.,0.,1.,1.,1.,1.,0.,0.866389367,0.,0.,              625P    570
0.133610633,0.,0.,1.,0.,0.,1.;                                       625P    571
110,45.85,5.675,0.1,45.85,2.325,0.1;                                 627P    572
126,1,1,1,0,1,0,0.,0.,1.,1.,1.,1.,0.,0.133610633,0.,                 629P    573
0.997367819,0.027801017,0.,0.,1.,0.,0.,1.;                           629P    574
110,45.85,2.325,0.1,8.448706775,1.841276608,0.1;                     631P    575
102,6,609,613,617,621,625,629;                                       633P    576
102,6,611,615,619,623,627,631;                                       635P    577
142,1,607,633,635,1;                                                 637P    578
144,607,1,0,637;                                                     639P    579
S      1G      4D    640P    579                                        T      1
